<?xml version="1.0" encoding="UTF-8" standalone="no"?>
<!DOCTYPE svg PUBLIC "-//W3C//DTD SVG 1.1//EN" "http://www.w3.org/Graphics/SVG/1.1/DTD/svg11.dtd">
<svg version="1.1" xmlns="http://www.w3.org/2000/svg" xmlns:xlink="http://www.w3.org/1999/xlink" preserveAspectRatio="xMidYMid meet" viewBox="0 0 640 640" width="64" height="64"><defs><path d="" id="g6LOscgrMs"></path><path d="M578.1 100C592.63 100 604.42 111.78 604.42 126.32C604.42 209.14 604.42 431.29 604.42 514.11C604.42 528.64 592.63 540.43 578.1 540.43C469.65 540.43 170.62 540.43 62.17 540.43C47.64 540.43 35.85 528.64 35.85 514.11C35.85 431.29 35.85 209.14 35.85 126.32C35.85 111.78 47.64 100 62.17 100C170.62 100 469.65 100 578.1 100Z" id="a1anINtojg"></path><mask id="maskd7AFyBWPw" x="-24.15" y="40" width="688.56" height="560.42" maskUnits="userSpaceOnUse"><rect x="-24.15" y="40" width="688.56" height="560.42" fill="white"></rect><use xlink:href="#a1anINtojg" opacity="1" fill="black"></use></mask><path d="M608.19 504.72L442.8 328.75L378.53 387.41L252.01 262.56L35.81 504.72L608.19 504.72Z" id="dzZvnjVLj"></path><clipPath id="cliph5pCwAF9D"><use xlink:href="#dzZvnjVLj" opacity="1"></use></clipPath><path d="M28 504.72L616 504.72L616 551.77L28 551.77L28 504.72Z" id="c2Mwd77A7i"></path><path d="M563.16 223.12C563.16 261.94 531.67 293.46 492.88 293.46C454.09 293.46 422.6 261.94 422.6 223.12C422.6 184.29 454.09 152.77 492.88 152.77C531.67 152.77 563.16 184.29 563.16 223.12Z" id="a4LsK5mLFr"></path><path d="" id="c1mrOmz6ZI"></path><path d="M574.32 472.67L609.65 508.6L609.65 528.25L31.18 535.4L31.18 513.4L67.72 472.67L574.32 472.67Z" id="aDdBBumDT"></path></defs><g><g><g><g><use xlink:href="#g6LOscgrMs" opacity="1" fill-opacity="0" stroke="#000000" stroke-width="1" stroke-opacity="1"></use></g></g><g><use xlink:href="#a1anINtojg" opacity="1" fill="#22e005" fill-opacity="0"></use><g mask="url(#maskd7AFyBWPw)"><use xlink:href="#a1anINtojg" opacity="1" fill-opacity="0" stroke="#000000" stroke-width="60" stroke-opacity="1"></use></g></g><g><use xlink:href="#dzZvnjVLj" opacity="1" fill="#000000" fill-opacity="1"></use><g clip-path="url(#cliph5pCwAF9D)"><use xlink:href="#dzZvnjVLj" opacity="1" fill-opacity="0" stroke="#000000" stroke-width="2" stroke-opacity="1"></use></g></g><g><use xlink:href="#c2Mwd77A7i" opacity="1" fill="#000000" fill-opacity="1"></use></g><g><use xlink:href="#a4LsK5mLFr" opacity="1" fill="#000000" fill-opacity="1"></use></g><g><g><use xlink:href="#c1mrOmz6ZI" opacity="1" fill-opacity="0" stroke="#000000" stroke-width="1" stroke-opacity="1"></use></g></g><g><use xlink:href="#aDdBBumDT" opacity="1" fill="#000000" fill-opacity="1"></use><g><use xlink:href="#aDdBBumDT" opacity="1" fill-opacity="0" stroke="#000000" stroke-width="0" stroke-opacity="1"></use></g></g></g></g></svg>